<svg width="24" height="24" viewBox="0 0 24 24" fill="none" xmlns="http://www.w3.org/2000/svg">
<path d="M23.8582 21.9609C22.0055 18.7594 19.0969 16.5129 15.7172 15.5601C17.3603 14.7249 18.6743 13.3606 19.4472 11.6872C20.22 10.0138 20.4068 8.12889 19.9774 6.33637C19.5479 4.54385 18.5273 2.9482 17.08 1.80671C15.6328 0.665227 13.8432 0.0444336 12 0.0444336C10.1568 0.0444336 8.36722 0.665227 6.91996 1.80671C5.4727 2.9482 4.45206 4.54385 4.02262 6.33637C3.59317 8.12889 3.77995 10.0138 4.55284 11.6872C5.32573 13.3606 6.63967 14.7249 8.28281 15.5601C4.90313 16.5117 1.99453 18.7582 0.141798 21.9609C0.0909239 22.0409 0.0567641 22.1304 0.0413733 22.224C0.0259826 22.3176 0.0296791 22.4133 0.0522401 22.5054C0.0748011 22.5975 0.11576 22.6841 0.172654 22.76C0.229548 22.8358 0.301201 22.8994 0.383301 22.9469C0.465402 22.9943 0.556254 23.0247 0.650391 23.0361C0.744529 23.0476 0.840007 23.0398 0.931081 23.0134C1.02216 22.987 1.10694 22.9424 1.18035 22.8824C1.25375 22.8223 1.31425 22.7481 1.3582 22.664C3.60938 18.7746 7.58672 16.4531 12 16.4531C16.4133 16.4531 20.3906 18.7746 22.6418 22.664C22.6858 22.7481 22.7463 22.8223 22.8197 22.8824C22.8931 22.9424 22.9778 22.987 23.0689 23.0134C23.16 23.0398 23.2555 23.0476 23.3496 23.0361C23.4437 23.0247 23.5346 22.9943 23.6167 22.9469C23.6988 22.8994 23.7705 22.8358 23.8273 22.76C23.8842 22.6841 23.9252 22.5975 23.9478 22.5054C23.9703 22.4133 23.974 22.3176 23.9586 22.224C23.9432 22.1304 23.9091 22.0409 23.8582 21.9609ZM5.20313 8.24998C5.20313 6.90568 5.60176 5.59158 6.34861 4.47384C7.09546 3.3561 8.15698 2.48492 9.39895 1.97049C10.6409 1.45605 12.0075 1.32144 13.326 1.5837C14.6445 1.84596 15.8556 2.4933 16.8061 3.44386C17.7567 4.39442 18.404 5.60551 18.6663 6.92397C18.9285 8.24244 18.7939 9.60906 18.2795 10.851C17.7651 12.093 16.8939 13.1545 15.7761 13.9014C14.6584 14.6482 13.3443 15.0469 12 15.0469C10.198 15.0447 8.47047 14.3279 7.19628 13.0537C5.92209 11.7795 5.2053 10.052 5.20313 8.24998Z" fill="#471AA0"/>
</svg>
